<svg width="33.71mm" height="28.81mm" version="1.1" viewBox="0 0 33.71 28.81" xml:space="preserve" xmlns="http://www.w3.org/2000/svg">
    <g transform="translate(-.5)">
        <circle cx="14.5" cy="2.85" r="2.85" fill="#006aae"/>
        <circle cx="21.3" cy="3.89" r="2.85" fill="#ff458d"/>
        <path d="m3.506 28.81s8.576-3.863 7.641-13.28c-0.9348-9.42-10.65-11.4-10.65-11.4s16.07-1.295 15.14 10.93c-0.9229 12.23-12.14 13.75-12.14 13.75z" fill="#006aae" opacity=".937"/>
        <path d="m19.05 14.11c-0.02978 9.256 14.73 14.7 14.73 14.7s-8.606-5.279-9.23-13.47c-0.624-8.189 9.663-9.603 9.663-9.603-6.012-0.2028-15.13-0.8865-15.16 8.369z" fill="#ff458d"/>
        
        
    <path d="m3.506 28.81s5.11-3.089 5.085-9.727c-0.02417-6.638-4.404-8.041-4.404-8.041s3.194 2.077 3.12 8c-0.07484 5.923-3.801 9.769-3.801 9.769z" fill="#006aae"/><path d="m33.78 28.81s-7.053-6.324-6.79-11.89 5.146-7.11 5.146-7.11-3.43 1.652-4.175 6.534c-0.7448 4.882 5.819 12.47 5.819 12.47z" fill="#ff458d"/></g>
</svg>
